<mxfile host="app.diagrams.net" modified="2023-08-31T03:34:38.072Z" agent="Mozilla/5.0 (Macintosh; Intel Mac OS X 10_15_7) AppleWebKit/537.36 (KHTML, like Gecko) Chrome/115.0.0.0 Safari/537.36" etag="V6utpRr68olRA4y-mDP2" version="21.6.9" type="github" pages="2">
  <diagram id="Ij6aHqkQ0AKCHX-e7K6y" name="Page-1">
    <mxGraphModel dx="1046" dy="114" grid="0" gridSize="10" guides="1" tooltips="1" connect="1" arrows="1" fold="1" page="0" pageScale="1" pageWidth="827" pageHeight="1169" math="0" shadow="0">
      <root>
        <mxCell id="0" />
        <mxCell id="1" parent="0" />
        <mxCell id="2" value="" style="fillColor=#dddddd;rounded=0;strokeColor=none;" parent="1" vertex="1">
          <mxGeometry x="21" y="534" width="840" height="30" as="geometry" />
        </mxCell>
        <mxCell id="3" value="2023 Q4" style="shape=mxgraph.infographic.ribbonSimple;notch1=0;notch2=10;notch=0;html=1;fillColor=#10739E;strokeColor=none;shadow=0;fontSize=17;fontColor=#FFFFFF;align=left;spacingLeft=10;fontStyle=1;" parent="1" vertex="1">
          <mxGeometry x="61" y="524" width="120" height="50" as="geometry" />
        </mxCell>
        <mxCell id="4" value="2024 Q1" style="shape=mxgraph.infographic.ribbonSimple;notch1=0;notch2=10;notch=0;html=1;fillColor=#F2931E;strokeColor=none;shadow=0;fontSize=17;fontColor=#FFFFFF;align=left;spacingLeft=10;fontStyle=1;" parent="1" vertex="1">
          <mxGeometry x="271" y="524" width="120" height="50" as="geometry" />
        </mxCell>
        <mxCell id="5" value="2024 Q2" style="shape=mxgraph.infographic.ribbonSimple;notch1=0;notch2=10;notch=0;html=1;fillColor=#AE4132;strokeColor=none;shadow=0;fontSize=17;fontColor=#FFFFFF;align=left;spacingLeft=10;fontStyle=1;" parent="1" vertex="1">
          <mxGeometry x="481" y="524" width="120" height="50" as="geometry" />
        </mxCell>
        <mxCell id="6" value="2024 Q3" style="shape=mxgraph.infographic.ribbonSimple;notch1=0;notch2=10;notch=0;html=1;fillColor=#23445D;strokeColor=none;shadow=0;fontSize=17;fontColor=#FFFFFF;align=left;spacingLeft=10;fontStyle=1;" parent="1" vertex="1">
          <mxGeometry x="691" y="524" width="120" height="50" as="geometry" />
        </mxCell>
        <mxCell id="7" value="&lt;b style=&quot;color: rgb(242 , 147 , 30)&quot;&gt;&amp;nbsp; &amp;nbsp; &amp;nbsp; &amp;nbsp; &amp;nbsp; &amp;nbsp; &amp;nbsp; &amp;nbsp; &amp;nbsp; &amp;nbsp; &amp;nbsp; &amp;nbsp; &amp;nbsp; &amp;nbsp; &amp;nbsp;v5.6.0&lt;/b&gt;&lt;font color=&quot;#10739e&quot;&gt;&lt;span&gt;&lt;br&gt;&lt;br&gt;&lt;/span&gt;&lt;br&gt;&lt;/font&gt;" style="rounded=1;strokeColor=none;fillColor=#DDDDDD;align=left;arcSize=12;verticalAlign=top;whiteSpace=wrap;html=1;fontSize=12;fontStyle=1" parent="1" vertex="1">
          <mxGeometry x="86" y="411" width="242" height="102" as="geometry" />
        </mxCell>
        <mxCell id="9" value="&lt;font style=&quot;font-size: 10px&quot;&gt;&lt;font style=&quot;font-size: 12px&quot; color=&quot;#23445D&quot;&gt;&lt;b&gt;v6.0&lt;/b&gt;&lt;/font&gt;&lt;br&gt;&lt;br&gt;&lt;br&gt;&lt;/font&gt;" style="rounded=1;strokeColor=none;fillColor=#DDDDDD;align=center;arcSize=12;verticalAlign=top;whiteSpace=wrap;html=1;fontSize=12;" parent="1" vertex="1">
          <mxGeometry x="447" y="584" width="430" height="93" as="geometry" />
        </mxCell>
        <mxCell id="12" value="1、KubeEdge 版本升级&lt;br&gt;2、基于 KubeEdge 的设备管理&lt;br&gt;3、通过网络打通方式实现云边互通&lt;br&gt;4、通过服务网格方式实现云边互通" style="text;html=1;whiteSpace=wrap;" parent="1" vertex="1">
          <mxGeometry x="103.5" y="433" width="207" height="68" as="geometry" />
        </mxCell>
        <mxCell id="15" value="1、基于 Serverless 的 IoT 云边协同能力，对各类设备消息进行云端处理&lt;br&gt;2、集成数据网关，实现 IoT 数据采集、云端数据同步及处理全流程&lt;br&gt;3、云边数据同步，支持将 IoT 数据存入大数据平台&lt;br&gt;4、与 TDEngine、MinIO 等数据库结合，存储时序、对象（图片、视频）" style="text;html=1;whiteSpace=wrap;" parent="1" vertex="1">
          <mxGeometry x="461" y="604" width="403" height="74" as="geometry" />
        </mxCell>
        <mxCell id="87xITqpbPDkS0j6L3j24-15" value="" style="fillColor=#dddddd;rounded=0;strokeColor=none;" vertex="1" parent="1">
          <mxGeometry x="17" y="848" width="840" height="30" as="geometry" />
        </mxCell>
        <mxCell id="87xITqpbPDkS0j6L3j24-16" value="2023 Q2" style="shape=mxgraph.infographic.ribbonSimple;notch1=0;notch2=10;notch=0;html=1;fillColor=#10739E;strokeColor=none;shadow=0;fontSize=17;fontColor=#FFFFFF;align=left;spacingLeft=10;fontStyle=1;" vertex="1" parent="1">
          <mxGeometry x="57" y="838" width="120" height="50" as="geometry" />
        </mxCell>
        <mxCell id="87xITqpbPDkS0j6L3j24-17" value="2023 Q3" style="shape=mxgraph.infographic.ribbonSimple;notch1=0;notch2=10;notch=0;html=1;fillColor=#F2931E;strokeColor=none;shadow=0;fontSize=17;fontColor=#FFFFFF;align=left;spacingLeft=10;fontStyle=1;" vertex="1" parent="1">
          <mxGeometry x="267" y="838" width="120" height="50" as="geometry" />
        </mxCell>
        <mxCell id="87xITqpbPDkS0j6L3j24-18" value="2023 Q4" style="shape=mxgraph.infographic.ribbonSimple;notch1=0;notch2=10;notch=0;html=1;fillColor=#AE4132;strokeColor=none;shadow=0;fontSize=17;fontColor=#FFFFFF;align=left;spacingLeft=10;fontStyle=1;" vertex="1" parent="1">
          <mxGeometry x="477" y="838" width="120" height="50" as="geometry" />
        </mxCell>
        <mxCell id="87xITqpbPDkS0j6L3j24-19" value="2024 Q1" style="shape=mxgraph.infographic.ribbonSimple;notch1=0;notch2=10;notch=0;html=1;fillColor=#23445D;strokeColor=none;shadow=0;fontSize=17;fontColor=#FFFFFF;align=left;spacingLeft=10;fontStyle=1;" vertex="1" parent="1">
          <mxGeometry x="687" y="838" width="120" height="50" as="geometry" />
        </mxCell>
        <mxCell id="87xITqpbPDkS0j6L3j24-20" value="&lt;b style=&quot;color: rgb(242 , 147 , 30)&quot;&gt;&amp;nbsp; &amp;nbsp; &amp;nbsp; &amp;nbsp; &amp;nbsp; &amp;nbsp; &amp;nbsp; &amp;nbsp; &amp;nbsp; &amp;nbsp; &amp;nbsp; &amp;nbsp; &amp;nbsp; &amp;nbsp; &amp;nbsp;v0.2.0&lt;/b&gt;&lt;font color=&quot;#10739e&quot;&gt;&lt;span&gt;&lt;br&gt;&lt;br&gt;&lt;/span&gt;&lt;br&gt;&lt;/font&gt;" style="rounded=1;strokeColor=none;fillColor=#DDDDDD;align=left;arcSize=12;verticalAlign=top;whiteSpace=wrap;html=1;fontSize=12;fontStyle=1" vertex="1" parent="1">
          <mxGeometry x="400" y="718" width="242" height="102" as="geometry" />
        </mxCell>
        <mxCell id="87xITqpbPDkS0j6L3j24-22" value="1. 支持OCI harbor仓库 &lt;br&gt;2. 组件评级 &lt;br&gt;3. 埋点、运营管理 &lt;br&gt;4. 部署模式：是否从单集群到多集群管理&lt;br&gt;5.官网完善" style="text;html=1;whiteSpace=wrap;" vertex="1" parent="1">
          <mxGeometry x="417.5" y="740" width="220.5" height="68" as="geometry" />
        </mxCell>
        <mxCell id="87xITqpbPDkS0j6L3j24-24" value="&lt;b style=&quot;color: rgb(242 , 147 , 30)&quot;&gt;&amp;nbsp; &amp;nbsp; &amp;nbsp; &amp;nbsp; &amp;nbsp; &amp;nbsp; &amp;nbsp; &amp;nbsp; &amp;nbsp; &amp;nbsp; &amp;nbsp; &amp;nbsp; &amp;nbsp; &amp;nbsp; &amp;nbsp;v0.1.0&lt;/b&gt;&lt;font color=&quot;#10739e&quot;&gt;&lt;span&gt;&lt;br&gt;&lt;br&gt;&lt;/span&gt;&lt;br&gt;&lt;/font&gt;" style="rounded=1;strokeColor=none;fillColor=#DDDDDD;align=left;arcSize=12;verticalAlign=top;whiteSpace=wrap;html=1;fontSize=12;fontStyle=1" vertex="1" parent="1">
          <mxGeometry x="61" y="718" width="242" height="102" as="geometry" />
        </mxCell>
        <mxCell id="87xITqpbPDkS0j6L3j24-25" value="1.组件管理&lt;br&gt;2.组件仓库&lt;br&gt;3.组件订阅与安装&lt;br&gt;4.组件市场" style="text;html=1;whiteSpace=wrap;" vertex="1" parent="1">
          <mxGeometry x="78.5" y="740" width="220.5" height="68" as="geometry" />
        </mxCell>
        <mxCell id="87xITqpbPDkS0j6L3j24-26" value="&lt;b style=&quot;color: rgb(242 , 147 , 30)&quot;&gt;&amp;nbsp; &amp;nbsp; &amp;nbsp; &amp;nbsp; &amp;nbsp; &amp;nbsp; &amp;nbsp; &amp;nbsp; &amp;nbsp; &amp;nbsp; &amp;nbsp; &amp;nbsp; &amp;nbsp; &amp;nbsp; 管理工作台&lt;/b&gt;&lt;font color=&quot;#10739e&quot;&gt;&lt;span&gt;&lt;br&gt;&lt;br&gt;&lt;/span&gt;&lt;br&gt;&lt;/font&gt;" style="rounded=1;strokeColor=none;fillColor=#DDDDDD;align=left;arcSize=12;verticalAlign=top;whiteSpace=wrap;html=1;fontSize=12;fontStyle=1" vertex="1" parent="1">
          <mxGeometry x="61" y="902" width="242" height="117" as="geometry" />
        </mxCell>
        <mxCell id="87xITqpbPDkS0j6L3j24-27" value="1.菜单管理&lt;br&gt;2.主体管理（用户、服务帐号、组）&lt;br&gt;3.角色管理（集群角色、项目角色）&lt;br&gt;4.集群管理&lt;br&gt;5.k8s资源管理&lt;br&gt;6.租户、项目管理" style="text;html=1;whiteSpace=wrap;" vertex="1" parent="1">
          <mxGeometry x="78.5" y="924" width="220.5" height="68" as="geometry" />
        </mxCell>
        <mxCell id="87xITqpbPDkS0j6L3j24-28" value="&lt;b style=&quot;color: rgb(242 , 147 , 30)&quot;&gt;&amp;nbsp; &amp;nbsp; &amp;nbsp; &amp;nbsp; &amp;nbsp; &amp;nbsp; &amp;nbsp; &amp;nbsp; &amp;nbsp; &amp;nbsp; &amp;nbsp; &amp;nbsp; &amp;nbsp; &amp;nbsp; 低代码开发平台&lt;/b&gt;&lt;font color=&quot;#10739e&quot;&gt;&lt;span&gt;&lt;br&gt;&lt;br&gt;&lt;/span&gt;&lt;br&gt;&lt;/font&gt;" style="rounded=1;strokeColor=none;fillColor=#DDDDDD;align=left;arcSize=12;verticalAlign=top;whiteSpace=wrap;html=1;fontSize=12;fontStyle=1" vertex="1" parent="1">
          <mxGeometry x="61" y="1027" width="242" height="98" as="geometry" />
        </mxCell>
        <mxCell id="87xITqpbPDkS0j6L3j24-29" value="1.应用管理&lt;br&gt;2.低代码组件发布&lt;br&gt;3.云梯开发平台&lt;br&gt;4.低代码平台仓库" style="text;html=1;whiteSpace=wrap;" vertex="1" parent="1">
          <mxGeometry x="71.75" y="1051.5" width="220.5" height="68" as="geometry" />
        </mxCell>
        <mxCell id="87xITqpbPDkS0j6L3j24-30" value="&lt;b style=&quot;color: rgb(242 , 147 , 30)&quot;&gt;&amp;nbsp; &amp;nbsp; &amp;nbsp; &amp;nbsp; &amp;nbsp; &amp;nbsp; &amp;nbsp; &amp;nbsp; &amp;nbsp; &amp;nbsp; &amp;nbsp; &amp;nbsp; &amp;nbsp; &amp;nbsp; &amp;nbsp;全面推广&lt;/b&gt;&lt;font color=&quot;#10739e&quot;&gt;&lt;br&gt;&lt;/font&gt;" style="rounded=1;strokeColor=none;fillColor=#DDDDDD;align=left;arcSize=12;verticalAlign=top;whiteSpace=wrap;html=1;fontSize=12;fontStyle=1" vertex="1" parent="1">
          <mxGeometry x="518" y="907" width="242" height="81" as="geometry" />
        </mxCell>
        <mxCell id="87xITqpbPDkS0j6L3j24-31" value="1.推广、运营策略&lt;br&gt;2.相关文档完善&lt;br&gt;3.持续迭代、共建社区" style="text;html=1;whiteSpace=wrap;" vertex="1" parent="1">
          <mxGeometry x="535.5" y="929" width="220.5" height="47" as="geometry" />
        </mxCell>
      </root>
    </mxGraphModel>
  </diagram>
  <diagram id="JqLbIVE8w4P7KurKNFA-" name="第 2 页">
    <mxGraphModel dx="1240" dy="609" grid="1" gridSize="10" guides="1" tooltips="1" connect="1" arrows="1" fold="1" page="1" pageScale="1" pageWidth="827" pageHeight="1169" math="0" shadow="0">
      <root>
        <mxCell id="0" />
        <mxCell id="1" parent="0" />
        <mxCell id="NRbeCOzWR-hHBmcNpzJM-1" value="" style="fillColor=#dddddd;rounded=0;strokeColor=none;" vertex="1" parent="1">
          <mxGeometry x="21" y="534" width="840" height="30" as="geometry" />
        </mxCell>
        <mxCell id="NRbeCOzWR-hHBmcNpzJM-2" value="2023 Q3" style="shape=mxgraph.infographic.ribbonSimple;notch1=0;notch2=10;notch=0;html=1;fillColor=#10739E;strokeColor=none;shadow=0;fontSize=17;fontColor=#FFFFFF;align=left;spacingLeft=10;fontStyle=1;" vertex="1" parent="1">
          <mxGeometry x="61" y="524" width="120" height="50" as="geometry" />
        </mxCell>
        <mxCell id="NRbeCOzWR-hHBmcNpzJM-3" value="2023 Q4" style="shape=mxgraph.infographic.ribbonSimple;notch1=0;notch2=10;notch=0;html=1;fillColor=#F2931E;strokeColor=none;shadow=0;fontSize=17;fontColor=#FFFFFF;align=left;spacingLeft=10;fontStyle=1;" vertex="1" parent="1">
          <mxGeometry x="271" y="524" width="120" height="50" as="geometry" />
        </mxCell>
        <mxCell id="NRbeCOzWR-hHBmcNpzJM-4" value="2024 Q1" style="shape=mxgraph.infographic.ribbonSimple;notch1=0;notch2=10;notch=0;html=1;fillColor=#AE4132;strokeColor=none;shadow=0;fontSize=17;fontColor=#FFFFFF;align=left;spacingLeft=10;fontStyle=1;" vertex="1" parent="1">
          <mxGeometry x="481" y="524" width="120" height="50" as="geometry" />
        </mxCell>
        <mxCell id="NRbeCOzWR-hHBmcNpzJM-5" value="2024 Q2" style="shape=mxgraph.infographic.ribbonSimple;notch1=0;notch2=10;notch=0;html=1;fillColor=#23445D;strokeColor=none;shadow=0;fontSize=17;fontColor=#FFFFFF;align=left;spacingLeft=10;fontStyle=1;" vertex="1" parent="1">
          <mxGeometry x="691" y="524" width="120" height="50" as="geometry" />
        </mxCell>
        <mxCell id="NRbeCOzWR-hHBmcNpzJM-6" value="&lt;b style=&quot;color: rgb(242 , 147 , 30)&quot;&gt;&amp;nbsp; &amp;nbsp; &amp;nbsp; &amp;nbsp; &amp;nbsp; &amp;nbsp; &amp;nbsp; &amp;nbsp; &amp;nbsp; &amp;nbsp; &amp;nbsp; &amp;nbsp; &amp;nbsp; &amp;nbsp; &amp;nbsp;v5.6.0&lt;/b&gt;&lt;font color=&quot;#10739e&quot;&gt;&lt;span&gt;&lt;br&gt;&lt;br&gt;&lt;/span&gt;&lt;br&gt;&lt;/font&gt;" style="rounded=1;strokeColor=none;fillColor=#DDDDDD;align=left;arcSize=12;verticalAlign=top;whiteSpace=wrap;html=1;fontSize=12;fontStyle=1" vertex="1" parent="1">
          <mxGeometry x="86" y="411" width="242" height="102" as="geometry" />
        </mxCell>
        <mxCell id="NRbeCOzWR-hHBmcNpzJM-7" value="&lt;font style=&quot;font-size: 10px&quot;&gt;&lt;font style=&quot;font-size: 12px&quot; color=&quot;#23445D&quot;&gt;&lt;b&gt;v6.0&lt;/b&gt;&lt;/font&gt;&lt;br&gt;&lt;br&gt;&lt;br&gt;&lt;/font&gt;" style="rounded=1;strokeColor=none;fillColor=#DDDDDD;align=center;arcSize=12;verticalAlign=top;whiteSpace=wrap;html=1;fontSize=12;" vertex="1" parent="1">
          <mxGeometry x="447" y="584" width="430" height="93" as="geometry" />
        </mxCell>
        <mxCell id="NRbeCOzWR-hHBmcNpzJM-8" value="1、农信银功能引入产品&lt;br&gt;2、产品优化" style="text;html=1;whiteSpace=wrap;" vertex="1" parent="1">
          <mxGeometry x="103.5" y="440" width="207" height="37" as="geometry" />
        </mxCell>
        <mxCell id="NRbeCOzWR-hHBmcNpzJM-9" value="1、与TCE解耦合，支持独立部署，并融合kubebb&lt;br&gt;2、ArgoCD 集成&lt;br&gt;3、流水线支持灰度发布配置" style="text;html=1;whiteSpace=wrap;" vertex="1" parent="1">
          <mxGeometry x="461" y="604" width="403" height="74" as="geometry" />
        </mxCell>
      </root>
    </mxGraphModel>
  </diagram>
</mxfile>
